<?xml version="1.0" standalone="no"?><!DOCTYPE svg PUBLIC "-//W3C//DTD SVG 1.1//EN" "http://www.w3.org/Graphics/SVG/1.1/DTD/svg11.dtd"><svg t="1580384667215" class="icon" viewBox="0 0 1024 1024" version="1.1" xmlns="http://www.w3.org/2000/svg" p-id="966" xmlns:xlink="http://www.w3.org/1999/xlink" width="200" height="200"><defs><style type="text/css"></style></defs><path d="M505.6 163.2c32 32 73.6 86.4 73.6 169.6 0 60.8-48 108.8-108.8 108.8s-108.8-48-108.8-108.8v-16c-54.4 76.8-99.2 176-99.2 294.4 0 137.6 112 249.6 249.6 249.6s249.6-112 249.6-249.6c-9.6-313.6-256-448-256-448z m44.8 588.8c-44.8 28.8-105.6 16-134.4-25.6-28.8-44.8-25.6-118.4 25.6-134.4 172.8-48 185.6-99.2 185.6-99.2s67.2 166.4-76.8 259.2z" fill="#2c2c2c" p-id="967"></path></svg>