<?xml version="1.0" standalone="no"?><!DOCTYPE svg PUBLIC "-//W3C//DTD SVG 1.1//EN" "http://www.w3.org/Graphics/SVG/1.1/DTD/svg11.dtd"><svg t="1583581799899" class="icon" viewBox="0 0 1024 1024" version="1.1" xmlns="http://www.w3.org/2000/svg" p-id="2718" width="100" height="100" xmlns:xlink="http://www.w3.org/1999/xlink"><defs><style type="text/css"></style></defs><path d="M897.28 85.333333h-750.933333c-28.16 0-51.2 23.04-51.2 51.2v750.933334c0 28.16 23.04 51.2 51.2 51.2h750.933333c28.16 0 51.2-23.04 51.2-51.2V136.533333c0-28.16-22.613333-51.2-51.2-51.2z m-17.066667 785.066667h-716.8V153.6h716.8v716.8z" fill="#000000" p-id="2719"></path><path d="M743.68 85.333333h-443.733333c-28.16 0-51.2 23.04-51.2 51.2v324.266667c0 28.16 23.04 51.2 51.2 51.2h443.733333c28.16 0 51.2-23.04 51.2-51.2V136.533333c0-28.16-22.613333-51.2-51.2-51.2z m-17.066667 358.4h-409.6V153.6h409.6v290.133333z" fill="#000000" p-id="2720"></path><path d="M632.746667 384c-18.773333 0-34.133333-15.36-34.133334-34.133333V247.466667c0-18.773333 15.36-34.133333 34.133334-34.133334s34.133333 15.36 34.133333 34.133334v102.4c0 18.773333-14.933333 34.133333-34.133333 34.133333z" fill="#000000" p-id="2721"></path></svg>